<?xml version="1.0" encoding="UTF-8" standalone="no"?><!DOCTYPE svg PUBLIC "-//W3C//DTD SVG 1.1//EN" "http://www.w3.org/Graphics/SVG/1.1/DTD/svg11.dtd"><svg width="100%" height="100%" viewBox="0 0 1275 129" version="1.1" xmlns="http://www.w3.org/2000/svg" xmlns:xlink="http://www.w3.org/1999/xlink" xml:space="preserve" xmlns:serif="http://www.serif.com/" style="fill-rule:evenodd;clip-rule:evenodd;stroke-linejoin:round;stroke-miterlimit:2;"><path d="M322.224,117.521l48.409,0c0.909,0 1.657,0.75 1.657,1.662l0.044,5.969c-0,0.911 -0.748,1.662 -1.657,1.662l-59.508,-0c-0.909,-0 -1.658,-0.751 -1.658,-1.662l0.197,-121.85c-0,-0.001 -0,-0.001 -0,-0.002c-0,-0.911 0.748,-1.661 1.657,-1.661c0.022,-0 0.044,-0 0.065,0.001l7.48,0.262c0.884,0.035 1.592,0.775 1.592,1.662l0.065,112.295c-0,0.912 0.748,1.662 1.657,1.662Z" style="fill:#ff22fc;fill-rule:nonzero;"/><path d="M13.083,67.036l-0.021,58.859c-0,0.484 -0.39,0.885 -0.873,0.897l-9.093,0.175c-0.007,-0 -0.014,-0 -0.021,-0c-0.491,-0 -0.894,-0.405 -0.894,-0.897c-0,0 -0,-122.987 -0,-122.987c-0,-0.492 0.403,-0.897 0.894,-0.897l59.813,0c0.49,0 0.894,0.405 0.894,0.897l-0.022,7.499c0,0.492 -0.403,0.897 -0.894,0.897l-48.888,-0c-0.491,-0 -0.895,0.404 -0.895,0.896l0,43.576c0,0.492 0.404,0.896 0.895,0.896l45.617,0c0.491,0 0.894,0.405 0.894,0.897l0,7.499c0,0.492 -0.403,0.897 -0.894,0.897l-45.617,-0c-0.491,-0 -0.895,0.404 -0.895,0.896Z" style="fill:#ff22fc;fill-rule:nonzero;"/><path d="M124.031,90.191l-42.499,-0c-0.385,0.004 -0.723,0.263 -0.829,0.634l-9.769,35.354c-0.108,0.379 -0.458,0.64 -0.85,0.635l-9.9,-0.044c-0.475,-0.006 -0.862,-0.399 -0.862,-0.875c-0,-0.081 0.011,-0.162 0.033,-0.24l36.307,-122.834c0.106,-0.371 0.444,-0.63 0.829,-0.635l12.538,0c0.384,0.005 0.723,0.264 0.829,0.635l36.306,122.856c0.023,0.078 0.034,0.159 0.034,0.24c-0,0.476 -0.388,0.869 -0.862,0.875l-9.944,0.022c-0.392,0.005 -0.742,-0.256 -0.85,-0.635l-9.682,-35.354c-0.106,-0.371 -0.444,-0.63 -0.829,-0.634Zm-1.984,-9.861l-18.753,-68.239c-0.363,-1.326 -0.727,-1.326 -1.09,0l-18.731,68.217c-0.009,0.036 -0.013,0.073 -0.013,0.109c-0,0.261 0.211,0.476 0.47,0.481l37.659,0c0.005,0 0.009,0 0.013,0c0.252,0 0.458,-0.207 0.458,-0.459c0,-0.037 -0.004,-0.073 -0.013,-0.109Z" style="fill:#ff22fc;fill-rule:nonzero;"/><path d="M169.824,17.929c-1.28,-4.461 -1.919,-4.373 -1.919,0.262l-0,107.923c-0,0.437 -0.218,0.656 -0.655,0.656l-9.703,0.044c-0.299,-0 -0.545,-0.247 -0.545,-0.547l-0,-122.987c-0,-0.715 0.363,-1.072 1.09,-1.072l16.507,-0.022c0.989,0 1.606,0.467 1.853,1.4l29.547,107.922c0.393,1.458 0.785,1.458 1.178,0l29.503,-107.704c0.305,-1.093 1.018,-1.639 2.137,-1.639l14.981,0.065c0.729,0 1.33,0.612 1.33,1.356l-0,121.588c-0,1.078 -0.545,1.618 -1.636,1.618l-7.61,0.043c-1.105,0.015 -1.657,-0.532 -1.657,-1.639l-0,-107.573c-0,-4.286 -0.589,-4.366 -1.766,-0.241l-30.877,108.47c-0.189,0.641 -0.618,0.962 -1.287,0.962l-8.199,-0c-0.843,-0 -1.381,-0.409 -1.614,-1.225l-30.658,-107.66Z" style="fill:#ff22fc;fill-rule:nonzero;"/><path d="M287.9,3.134c0.001,-0.53 -0.429,-0.961 -0.959,-0.962l-8.939,-0.015c-0.53,-0.001 -0.961,0.428 -0.961,0.958l-0.214,122.926c-0.001,0.53 0.428,0.96 0.958,0.961l8.939,0.016c0.53,0.001 0.961,-0.428 0.962,-0.958l0.214,-122.926Z" style="fill:#ff22fc;"/><path d="M396.451,62.904l26.385,-60.171c0.175,-0.379 0.458,-0.568 0.851,-0.568l10.684,0.065c0.291,0 0.378,0.131 0.262,0.394c-10.409,23.059 -20.795,46.068 -31.16,69.026c-1.454,3.236 -2.188,6.632 -2.203,10.188c-0.072,14.533 -0.08,28.738 -0.022,42.614c0,1.56 -0.785,2.354 -2.355,2.383l-5.974,0.066c-0.005,0 -0.009,0 -0.013,0c-1.376,0.017 -2.522,-1.114 -2.539,-2.505c0,-0.003 0,-0.006 0,-0.009c-0.072,-14.125 -0.072,-28.103 0,-41.936c0.029,-3.63 -0.69,-7.092 -2.158,-10.386c-10.366,-23.22 -20.818,-46.374 -31.357,-69.463c-0.117,-0.248 -0.037,-0.372 0.24,-0.372l10.772,-0.065c0.407,-0 0.69,0.189 0.85,0.568l26.363,60.149c0.466,1.05 0.923,1.057 1.374,0.022Z" style="fill:#ff22fc;fill-rule:nonzero;"/><path d="M481.908,16.836l0,108.994c0,0.539 -0.443,0.984 -0.981,0.984l-13.302,0.021c-0.538,0 -0.981,-0.444 -0.981,-0.983l-0,-109.016c-0,-0.54 -0.443,-0.984 -0.981,-0.984l-29.133,-0c-0.538,-0 -0.981,-0.444 -0.981,-0.984l0.087,-11.698c0,-0.539 0.443,-0.984 0.981,-0.984l75.885,0c0.538,0 0.981,0.445 0.981,0.984l-0.066,11.698c0,0.54 -0.443,0.984 -0.981,0.984l-29.547,-0c-0.538,-0 -0.981,0.444 -0.981,0.984Z" style="fill:#40fff2;fill-rule:nonzero;"/><path d="M540.784,67.911l-0.022,57.132c-0,0.971 -0.797,1.771 -1.766,1.771l-11.71,0.021c-0.969,0 -1.766,-0.799 -1.766,-1.771c-0,0 -0,-121.128 -0,-121.129c-0,-0.971 0.797,-1.771 1.766,-1.771c0.007,0 0.014,0 0.022,0.001l11.731,0.087c0.961,0.012 1.745,0.808 1.745,1.771l-0,46.681c-0,0.971 0.797,1.771 1.766,1.771l37.855,-0c0.969,-0 1.766,-0.8 1.766,-1.771l0.196,-46.725c0.012,-0.955 0.792,-1.737 1.745,-1.749l11.579,-0.044c0.969,0 1.766,0.8 1.766,1.771l0.022,121.064c-0,0.971 -0.798,1.771 -1.767,1.771l-11.709,0.065c-0.969,0 -1.767,-0.799 -1.767,-1.771l0,-57.175c0,-0.972 -0.797,-1.771 -1.766,-1.771l-37.92,-0c-0.969,-0 -1.766,0.799 -1.766,1.771Z" style="fill:#40fff2;fill-rule:nonzero;"/><path d="M634.549,16.726l-0.066,37.06c0,0.48 0.394,0.875 0.872,0.875l44.659,0c0.478,0 0.872,0.395 0.872,0.875l-0,11.916c-0,0.479 -0.394,0.874 -0.872,0.874l-44.593,0c-0.479,0 -0.872,0.395 -0.872,0.875l-0,43.073c-0,0.48 0.393,0.874 0.872,0.874l49.412,0c0.478,0 0.872,0.395 0.872,0.875l0.044,11.916c-0,0.48 -0.394,0.875 -0.873,0.875l-64.632,0.021c-0.479,0 -0.872,-0.394 -0.872,-0.874l-0.109,-122.856c-0,-0.48 0.393,-0.875 0.872,-0.875l62.561,-0.065c0.478,-0 0.872,0.394 0.872,0.874l-0.065,11.938c-0,0.48 -0.394,0.875 -0.873,0.875l-47.209,-0c-0.479,-0 -0.872,0.394 -0.872,0.874Z" style="fill:#40fff2;fill-rule:nonzero;"/><path d="M754.175,65.506c9.842,3.498 15.032,10.633 15.569,21.405c0.422,8.206 0.778,16.398 1.069,24.576c0.218,6.195 2.079,11.15 5.582,14.867c0.048,0.046 0.076,0.109 0.076,0.176c-0,0.131 -0.109,0.24 -0.24,0.24c-0.004,0 -0.007,-0 -0.01,-0l-16.791,0.065c-0.392,0 -0.668,-0.182 -0.828,-0.546c-6.607,-15.983 0.349,-45.26 -12.168,-52.562c-6.454,-3.783 -21.828,-2.187 -30.114,-2.143c-0.727,0.015 -1.09,0.386 -1.09,1.115l-0,52.453c-0,0.899 -0.728,1.64 -1.614,1.64l-12.015,0.043c-1.09,0 -1.635,-0.553 -1.635,-1.661l0.022,-121.326c-0.001,-0.847 0.681,-1.551 1.526,-1.574c14.029,-0.219 28.217,-0.175 42.565,0.131c9.696,0.204 17.059,4.009 22.089,11.413c10.075,14.846 7.676,44.166 -11.971,50.769c-0.887,0.292 -0.894,0.598 -0.022,0.919Zm-38.989,-50.157l0.088,43.073c-0,0.336 0.275,0.612 0.61,0.612l20.345,-0.044c10.921,-0.024 19.889,-8.936 19.865,-19.743l0,-4.898c-0.024,-10.804 -9.025,-19.675 -19.943,-19.656c-0.003,-0 -0.006,-0 -0.009,-0l-20.345,0.044c-0.335,-0 -0.611,0.276 -0.611,0.612Z" style="fill:#40fff2;fill-rule:nonzero;"/><path d="M805.157,92.377l-8.897,33.89c-0.088,0.323 -0.385,0.549 -0.719,0.547l-14.37,-0.022c-0.4,-0.01 -0.725,-0.342 -0.725,-0.743c0,-0.067 0.009,-0.133 0.027,-0.197l35.478,-123.119c0.088,-0.323 0.385,-0.549 0.72,-0.547l19.298,0c0.334,-0.002 0.631,0.224 0.719,0.547l33.014,123.097c0.018,0.064 0.027,0.13 0.027,0.196c-0,0.408 -0.335,0.744 -0.742,0.744c-0.001,-0 -0.003,-0 -0.004,-0l-14.327,0.044c-0.341,-0.001 -0.639,-0.237 -0.719,-0.569l-8.635,-33.846c-0.081,-0.332 -0.379,-0.568 -0.72,-0.568l-38.705,-0c-0.335,-0.003 -0.631,0.223 -0.72,0.546Zm3.642,-14.168c-0.018,0.064 -0.027,0.13 -0.027,0.197c0,0.401 0.324,0.734 0.724,0.743l31.619,0.284c0.001,0 0.003,0 0.004,0c0.407,0 0.742,-0.335 0.742,-0.743c-0,-0.066 -0.009,-0.133 -0.027,-0.197l-15.307,-57.066c-0.082,-0.33 -0.38,-0.564 -0.72,-0.564c-0.339,-0 -0.638,0.234 -0.719,0.564l-16.289,56.782Z" style="fill:#40fff2;fill-rule:nonzero;"/><path d="M894.037,74.929l0,49.392c0,1.618 -0.806,2.434 -2.42,2.449l-10.336,0.065c-1.643,0.015 -2.464,-0.794 -2.464,-2.427l-0.044,-120.625c0,-0.962 0.48,-1.451 1.44,-1.465c12.022,-0.292 24.248,-0.285 36.677,0.021c13.694,0.321 23.114,5.955 28.26,16.902c5.037,10.735 4.405,27.527 -1.243,37.869c-10.292,18.891 -30.244,16.617 -48.823,16.748c-0.698,0.015 -1.047,0.372 -1.047,1.071Zm-0.043,-59.733l0.087,45.478c0,0.3 0.246,0.546 0.545,0.546l18.339,-0.043c10.835,-0.024 19.732,-9.178 19.712,-20.281c0,-0.003 0,-0.006 0,-0.01l0,-6.078c-0.024,-11.107 -8.962,-20.226 -19.799,-20.203l-18.339,0.044c-0.299,0 -0.545,0.247 -0.545,0.547Z" style="fill:#40fff2;fill-rule:nonzero;"/><path d="M991.706,59.187l23.768,-56.541c0.121,-0.278 0.395,-0.459 0.698,-0.46l14.784,0.022c0.003,0 0.006,0 0.009,0c0.216,0 0.393,0.178 0.393,0.394c-0,0.052 -0.011,0.104 -0.031,0.153c-10.089,23.278 -20.149,46.36 -30.179,69.244c-1.527,3.47 -2.312,7.092 -2.355,10.867c-0.146,13.964 -0.226,27.746 -0.24,41.346c-0,1.415 -1.152,2.58 -2.552,2.58l-9.965,0.043c-1.672,0 -2.508,-0.838 -2.508,-2.514c0.073,-13.862 0.022,-27.666 -0.152,-41.411c-0.044,-3.775 -0.829,-7.412 -2.355,-10.911c-10.147,-23.117 -20.214,-46.206 -30.201,-69.266c-0.16,-0.35 -0.044,-0.525 0.349,-0.525l15.46,-0.022c0.465,0 0.785,0.219 0.959,0.656l22.896,56.345c0.032,0.079 0.079,0.151 0.138,0.212c0.252,0.256 0.677,0.252 0.941,-0.009c0.059,-0.059 0.108,-0.128 0.143,-0.203Z" style="fill:#40fff2;fill-rule:nonzero;"/><path d="M1070.66,74.448l-27.889,51.797c-0.218,0.394 -0.553,0.59 -1.003,0.59l-9.66,-0.087c-0.188,-0.005 -0.341,-0.161 -0.341,-0.35c0,-0.053 0.012,-0.105 0.035,-0.153l33.123,-61.832c0.422,-0.773 0.429,-1.546 0.022,-2.318l-31.029,-59.624c-0.088,-0.175 -0.029,-0.263 0.174,-0.263l10.925,0c0.269,0.001 0.52,0.152 0.654,0.394l25.426,48.779c0.165,0.317 0.493,0.517 0.85,0.517c0.357,-0 0.685,-0.2 0.85,-0.517l25.622,-48.582c0.214,-0.391 0.625,-0.634 1.069,-0.634l9.747,0.065c0.32,0 0.407,0.146 0.262,0.437l-31.183,59.515c-0.378,0.715 -0.378,1.429 0,2.143l32.513,60.302c0.251,0.464 0.738,0.755 1.264,0.755c0.527,-0 1.014,-0.291 1.265,-0.755l32.338,-60.368c0.364,-0.67 0.371,-1.341 0.022,-2.011l-31.03,-59.624c-0.145,-0.277 -0.065,-0.416 0.24,-0.416l10.772,0c0.264,-0.001 0.51,0.151 0.633,0.394l25.447,48.779c0.165,0.317 0.494,0.517 0.85,0.517c0.357,-0 0.686,-0.2 0.851,-0.517l25.622,-48.582c0.214,-0.391 0.624,-0.634 1.068,-0.634l9.747,0.065c0.32,0 0.407,0.146 0.262,0.437l-31.182,59.515c-0.378,0.715 -0.378,1.429 -0,2.143l32.359,60.04c0.283,0.52 0.828,0.844 1.418,0.844c0.59,0 1.135,-0.324 1.417,-0.844l32.186,-60.106c0.348,-0.67 0.348,-1.341 -0,-2.011l-31.008,-59.624c-0.146,-0.277 -0.066,-0.416 0.24,-0.416l10.772,0c0.264,-0.001 0.509,0.151 0.632,0.394l25.447,48.779c0.166,0.317 0.494,0.517 0.851,0.517c0.357,-0 0.685,-0.2 0.85,-0.517l25.622,-48.582c0.214,-0.391 0.624,-0.634 1.069,-0.634l9.921,0.065c0.107,0.001 0.195,0.09 0.195,0.197c0,0.03 -0.007,0.06 -0.02,0.087l-31.292,59.668c-0.363,0.729 -0.356,1.451 0.022,2.165l33.428,61.942c0.024,0.048 0.036,0.1 0.036,0.153c-0,0.189 -0.153,0.345 -0.341,0.35l-10.75,-0c-0.245,-0.001 -0.471,-0.135 -0.589,-0.35l-28.02,-52.125c-0.132,-0.252 -0.393,-0.41 -0.676,-0.41c-0.284,0 -0.545,0.158 -0.676,0.41l-27.672,51.403c-0.363,0.671 -0.923,1.006 -1.679,1.006l-19.952,0c-1.221,0 -2.123,-0.539 -2.704,-1.618l-27.454,-51.031c-0.11,-0.205 -0.324,-0.332 -0.556,-0.332c-0.231,-0 -0.445,0.127 -0.556,0.332l-27.78,51.643c-0.349,0.671 -0.909,1.006 -1.679,1.006l-20.65,0c-0.771,0 -1.338,-0.335 -1.701,-1.006l-27.563,-51.272c-0.494,-0.933 -0.988,-0.933 -1.483,0Z" style="fill:#ff22fc;fill-rule:nonzero;"/></svg>